<mxfile host="app.diagrams.net" agent="Mozilla/5.0 (Windows NT 10.0; Win64; x64) AppleWebKit/537.36 (KHTML, like Gecko) Chrome/140.0.0.0 Safari/537.36" version="28.2.5">
  <diagram name="Page-1" id="mt74ft-CJVw-1JjEMwi3">
    <mxGraphModel dx="991" dy="1022" grid="1" gridSize="10" guides="1" tooltips="1" connect="1" arrows="1" fold="1" page="0" pageScale="1" pageWidth="850" pageHeight="1100" math="0" shadow="0">
      <root>
        <mxCell id="0" />
        <mxCell id="1" parent="0" />
        <mxCell id="dZAlSmz0zj5mqucRULhj-1" value="&lt;b&gt;Úverový systém&lt;/b&gt;" style="html=1;dropTarget=0;align=left;labelPosition=center;verticalLabelPosition=middle;verticalAlign=top;whiteSpace=wrap;spacingLeft=6;" vertex="1" parent="1">
          <mxGeometry x="-250" y="-140" width="190" height="100" as="geometry" />
        </mxCell>
        <mxCell id="dZAlSmz0zj5mqucRULhj-2" value="" style="shape=module;jettyWidth=8;jettyHeight=4;" vertex="1" parent="dZAlSmz0zj5mqucRULhj-1">
          <mxGeometry x="1" width="20" height="20" relative="1" as="geometry">
            <mxPoint x="-27" y="7" as="offset" />
          </mxGeometry>
        </mxCell>
        <mxCell id="dZAlSmz0zj5mqucRULhj-3" value="«external»&lt;br&gt;&lt;b&gt;Elektronická databáza stratených a odcudzených dokladov&lt;/b&gt;" style="html=1;dropTarget=0;whiteSpace=wrap;" vertex="1" parent="1">
          <mxGeometry x="-40" y="-140" width="190" height="100" as="geometry" />
        </mxCell>
        <mxCell id="dZAlSmz0zj5mqucRULhj-4" value="" style="shape=module;jettyWidth=8;jettyHeight=4;" vertex="1" parent="dZAlSmz0zj5mqucRULhj-3">
          <mxGeometry x="1" width="20" height="20" relative="1" as="geometry">
            <mxPoint x="-27" y="7" as="offset" />
          </mxGeometry>
        </mxCell>
        <mxCell id="dZAlSmz0zj5mqucRULhj-8" value="«external»&lt;br&gt;&lt;b&gt;Klientský systém banky&lt;/b&gt;" style="html=1;dropTarget=0;whiteSpace=wrap;" vertex="1" parent="1">
          <mxGeometry x="-40" y="-20" width="190" height="100" as="geometry" />
        </mxCell>
        <mxCell id="dZAlSmz0zj5mqucRULhj-9" value="" style="shape=module;jettyWidth=8;jettyHeight=4;" vertex="1" parent="dZAlSmz0zj5mqucRULhj-8">
          <mxGeometry x="1" width="20" height="20" relative="1" as="geometry">
            <mxPoint x="-27" y="7" as="offset" />
          </mxGeometry>
        </mxCell>
        <mxCell id="dZAlSmz0zj5mqucRULhj-10" value="«e&lt;span style=&quot;background-color: transparent; color: light-dark(rgb(0, 0, 0), rgb(255, 255, 255));&quot;&gt;xternal»&lt;/span&gt;&lt;div&gt;&lt;b&gt;Blacklist banky&lt;/b&gt;&lt;/div&gt;" style="html=1;dropTarget=0;whiteSpace=wrap;" vertex="1" parent="1">
          <mxGeometry x="-250" y="-20" width="190" height="100" as="geometry" />
        </mxCell>
        <mxCell id="dZAlSmz0zj5mqucRULhj-11" value="" style="shape=module;jettyWidth=8;jettyHeight=4;" vertex="1" parent="dZAlSmz0zj5mqucRULhj-10">
          <mxGeometry x="1" width="20" height="20" relative="1" as="geometry">
            <mxPoint x="-27" y="7" as="offset" />
          </mxGeometry>
        </mxCell>
        <mxCell id="dZAlSmz0zj5mqucRULhj-14" value="«e&lt;span style=&quot;background-color: transparent; color: light-dark(rgb(0, 0, 0), rgb(255, 255, 255));&quot;&gt;xternal»&lt;/span&gt;&lt;div&gt;&lt;b&gt;Webová služba sociálnej poisťovne&lt;/b&gt;&lt;/div&gt;" style="html=1;dropTarget=0;whiteSpace=wrap;" vertex="1" parent="1">
          <mxGeometry x="-250" y="100" width="190" height="100" as="geometry" />
        </mxCell>
        <mxCell id="dZAlSmz0zj5mqucRULhj-15" value="" style="shape=module;jettyWidth=8;jettyHeight=4;" vertex="1" parent="dZAlSmz0zj5mqucRULhj-14">
          <mxGeometry x="1" width="20" height="20" relative="1" as="geometry">
            <mxPoint x="-27" y="7" as="offset" />
          </mxGeometry>
        </mxCell>
        <mxCell id="dZAlSmz0zj5mqucRULhj-18" value="«e&lt;span style=&quot;background-color: transparent; color: light-dark(rgb(0, 0, 0), rgb(255, 255, 255));&quot;&gt;xternal»&lt;/span&gt;&lt;div&gt;&lt;b&gt;Centrálny úverový systém (SRBI)&lt;/b&gt;&lt;/div&gt;" style="html=1;dropTarget=0;whiteSpace=wrap;" vertex="1" parent="1">
          <mxGeometry x="-40" y="100" width="190" height="100" as="geometry" />
        </mxCell>
        <mxCell id="dZAlSmz0zj5mqucRULhj-19" value="" style="shape=module;jettyWidth=8;jettyHeight=4;" vertex="1" parent="dZAlSmz0zj5mqucRULhj-18">
          <mxGeometry x="1" width="20" height="20" relative="1" as="geometry">
            <mxPoint x="-27" y="7" as="offset" />
          </mxGeometry>
        </mxCell>
      </root>
    </mxGraphModel>
  </diagram>
</mxfile>
